<svg width="32" height="32" viewBox="0 0 32 32" fill="none" xmlns="http://www.w3.org/2000/svg">
<g clip-path="url(#clip0_113_1644)">
<path d="M0 32L2.2617 23.7871C0.863419 21.3764 0.129895 18.6464 0.137536 15.8555C0.137536 7.11027 7.28939 0 16.0688 0C20.3324 0 24.3362 1.65019 27.339 4.64639C30.3495 7.64259 32.0076 11.6274 32 15.8631C32 24.6084 24.8481 31.7186 16.0611 31.7186H16.0535C13.3868 31.7186 10.766 31.0494 8.43552 29.7871L0 32ZM8.84049 26.9202L9.32187 27.2091C11.3543 28.4107 13.6848 29.0418 16.0611 29.0494H16.0688C23.3658 29.0494 29.3104 23.1407 29.3104 15.8707C29.3104 12.3498 27.935 9.04183 25.4365 6.54753C22.9379 4.05323 19.6065 2.68441 16.0688 2.68441C8.77172 2.67681 2.82712 8.58555 2.82712 15.8555C2.82712 18.3422 3.52244 20.7681 4.85195 22.8669L5.16523 23.3688L3.82808 28.2281L8.84049 26.9202Z" fill="white"/>
<path d="M0.557739 31.4449L2.74303 23.5134C1.39059 21.194 0.679993 18.5552 0.679993 15.8632C0.687634 7.4221 7.58734 0.555176 16.0687 0.555176C20.1871 0.555176 24.0458 2.15213 26.9493 5.04187C29.8528 7.9316 31.4498 11.7795 31.4498 15.8708C31.4498 24.3118 24.5424 31.1788 16.0687 31.1788H16.0611C13.4861 31.1788 10.957 30.5324 8.71055 29.3156L0.557739 31.4449Z" fill="#353537"/>
<path d="M0 32L2.2617 23.7871C0.863419 21.3764 0.129895 18.6464 0.137536 15.8555C0.137536 7.11027 7.28939 0 16.0688 0C20.3324 0 24.3362 1.65019 27.339 4.64639C30.3495 7.64259 32.0076 11.6274 32 15.8631C32 24.6084 24.8481 31.7186 16.0611 31.7186H16.0535C13.3868 31.7186 10.766 31.0494 8.43552 29.7871L0 32ZM8.84049 26.9202L9.32187 27.2091C11.3543 28.4107 13.6848 29.0418 16.0611 29.0494H16.0688C23.3658 29.0494 29.3104 23.1407 29.3104 15.8707C29.3104 12.3498 27.935 9.04183 25.4365 6.54753C22.9379 4.05323 19.6065 2.68441 16.0688 2.68441C8.77172 2.67681 2.82712 8.58555 2.82712 15.8555C2.82712 18.3422 3.52244 20.7681 4.85195 22.8669L5.16523 23.3688L3.82808 28.2281L8.84049 26.9202Z" fill="#353537"/>
<path fill-rule="evenodd" clip-rule="evenodd" d="M12.0877 9.22424C11.7897 8.56265 11.4764 8.54744 11.1937 8.53983C10.9645 8.53223 10.6971 8.53223 10.4296 8.53223C10.1622 8.53223 9.73433 8.63109 9.36757 9.02652C9.00081 9.42196 7.97693 10.3801 7.97693 12.3345C7.97693 14.2813 9.40577 16.1672 9.60443 16.4334C9.8031 16.6995 12.3628 20.8288 16.4048 22.4182C19.7668 23.7414 20.4545 23.4752 21.1804 23.4068C21.9062 23.3383 23.5337 22.4486 23.8699 21.5208C24.1985 20.5931 24.1985 19.8022 24.0992 19.6349C23.9998 19.4676 23.7324 19.3687 23.3351 19.171C22.9378 18.9733 20.9817 18.0151 20.6149 17.8782C20.2482 17.749 19.9807 17.6805 19.721 18.076C19.4535 18.4714 18.6894 19.3611 18.4602 19.6273C18.231 19.8934 17.9941 19.9239 17.5968 19.7261C17.1995 19.5284 15.9158 19.1102 14.3953 17.7566C13.2109 16.7071 12.4086 15.4068 12.1794 15.0113C11.9502 14.6159 12.1565 14.403 12.3551 14.2052C12.5309 14.0303 12.7525 13.7414 12.9511 13.5132C13.1498 13.2851 13.2186 13.1178 13.3485 12.8516C13.4784 12.5855 13.4172 12.3573 13.3179 12.1596C13.2186 11.9695 12.4392 10.0075 12.0877 9.22424Z" fill="white"/>
</g>
<defs>
<clipPath id="clip0_113_1644">
<rect width="32" height="32" fill="white"/>
</clipPath>
</defs>
</svg>
