<svg width="166" height="112" viewBox="0 0 166 112" fill="none" xmlns="http://www.w3.org/2000/svg">
<path d="M42.8521 112C36.6918 112 31.0192 110.562 25.8343 107.686C20.7007 104.759 16.2345 100.728 12.4356 95.5928C8.63674 90.4576 5.68493 84.5264 3.58015 77.7992C1.52672 71.0206 0.5 63.7799 0.5 56.077C0.5 48.3741 1.52672 41.1591 3.58015 34.4319C5.68493 27.6534 8.63674 21.6965 12.4356 16.5612C16.2345 11.426 20.7007 7.42045 25.8343 4.5447C31.0192 1.61761 36.6918 0.154056 42.8521 0.154056C49.0124 0.154056 54.6594 1.61761 59.793 4.5447C64.9779 7.42045 69.4441 11.426 73.1916 16.5612C76.9392 21.6965 79.8396 27.6534 81.8931 34.4319C83.9979 41.1591 85.0502 48.3741 85.0502 56.077C85.0502 63.7799 83.9979 71.0206 81.8931 77.7992C79.8396 84.5264 76.9392 90.4576 73.1916 95.5928C69.4441 100.728 64.9779 104.759 59.793 107.686C54.6594 110.562 49.0124 112 42.8521 112ZM42.8521 88.8913C47.6264 88.8913 51.5279 87.3251 54.5567 84.1926C57.6369 81.0601 59.8956 77.0032 61.333 72.022C62.7705 66.9894 63.4892 61.6745 63.4892 56.077C63.4892 50.1715 62.7191 44.7281 61.179 39.7469C59.639 34.7657 57.3288 30.7859 54.2487 27.8074C51.2199 24.7776 47.421 23.2627 42.8521 23.2627C39.2586 23.2627 36.1528 24.1871 33.5347 26.0358C30.9165 27.8331 28.7604 30.298 27.0663 33.4305C25.3722 36.5117 24.1145 40.0037 23.2931 43.9065C22.4718 47.8093 22.0611 51.8661 22.0611 56.077C22.0611 61.6231 22.8055 66.9124 24.2942 71.945C25.7829 76.9262 28.0674 81.0087 31.1475 84.1926C34.2277 87.3251 38.1292 88.8913 42.8521 88.8913Z" fill="#323231"/>
<path d="M129.924 112C123.456 112 117.527 110.408 112.136 107.224C106.746 104.04 102.434 99.7524 99.1997 94.3604C95.9655 88.9684 94.3484 82.9858 94.3484 76.4127H117.45C117.45 78.6722 118.014 80.7519 119.144 82.652C120.273 84.552 121.787 86.0669 123.687 87.1967C125.586 88.3265 127.665 88.8913 129.924 88.8913C132.183 88.8913 134.262 88.3265 136.162 87.1967C138.061 86.0669 139.575 84.552 140.705 82.652C141.834 80.7519 142.399 78.6722 142.399 76.4127C142.399 73.2801 141.526 70.6868 139.781 68.6327C138.035 66.5273 135.571 64.961 132.388 63.934C129.257 62.9069 125.561 62.3934 121.3 62.3934V44.8308C126.947 44.8308 131.387 43.8808 134.621 41.9807C137.856 40.0293 139.473 37.1279 139.473 33.2765C139.473 31.4278 139.011 29.7331 138.087 28.1926C137.214 26.652 136.008 25.4195 134.467 24.4952C132.979 23.5708 131.31 23.1087 129.462 23.1087C127.563 23.1087 125.689 23.5708 123.841 24.4952C121.993 25.4195 120.453 26.652 119.221 28.1926C118.04 29.7331 117.45 31.4278 117.45 33.2765H94.3484C94.3484 28.7061 95.2725 24.4182 97.1206 20.4127C99.02 16.3558 101.587 12.8125 104.821 9.78267C108.106 6.70151 111.828 4.31362 115.987 2.61898C120.196 0.872995 124.585 0 129.154 0C135.16 0 140.705 1.48922 145.787 4.46767C150.869 7.44613 154.925 11.4516 157.954 16.4842C161.034 21.5167 162.574 27.1142 162.574 33.2765C162.574 36.8712 161.804 40.5942 160.264 44.4457C158.724 48.2971 156.414 51.0445 153.333 52.6878C156.003 53.7148 158.236 55.5378 160.033 58.1568C161.829 60.7244 163.19 63.6515 164.114 66.9381C165.038 70.1733 165.5 73.3315 165.5 76.4127C165.5 82.9344 163.883 88.8913 160.649 94.2834C157.466 99.6754 153.179 103.989 147.789 107.224C142.399 110.408 136.444 112 129.924 112Z" fill="#323231"/>
</svg>
