<svg width="138" height="115" viewBox="0 0 138 115" fill="none" xmlns="http://www.w3.org/2000/svg">
<path d="M44.0864 115C37.7466 115 31.9086 113.522 26.5726 110.565C21.2894 107.555 16.693 103.41 12.7834 98.1302C8.87387 92.8501 5.83603 86.7516 3.66992 79.8347C1.55664 72.865 0.5 65.4201 0.5 57.5C0.5 49.5799 1.55664 42.1614 3.66992 35.2445C5.83603 28.2748 8.87387 22.1499 12.7834 16.8698C16.693 11.5898 21.2894 7.47131 26.5726 4.51447C31.9086 1.50482 37.7466 0 44.0864 0C50.4262 0 56.2378 1.50482 61.521 4.51447C66.857 7.47131 71.4534 11.5898 75.3101 16.8698C79.1669 22.1499 82.1519 28.2748 84.2652 35.2445C86.4313 42.1614 87.5143 49.5799 87.5143 57.5C87.5143 65.4201 86.4313 72.865 84.2652 79.8347C82.1519 86.7516 79.1669 92.8501 75.3101 98.1302C71.4534 103.41 66.857 107.555 61.521 110.565C56.2378 113.522 50.4262 115 44.0864 115ZM44.0864 91.2397C48.9998 91.2397 53.015 89.6292 56.1321 86.4084C59.302 83.1876 61.6266 79.0163 63.1059 73.8946C64.5852 68.7202 65.3249 63.2553 65.3249 57.5C65.3249 51.4279 64.5324 45.831 62.9474 40.7094C61.3625 35.5877 58.985 31.4956 55.8151 28.4332C52.698 25.318 48.7885 23.7603 44.0864 23.7603C40.3882 23.7603 37.1918 24.7107 34.4974 26.6116C31.803 28.4596 29.584 30.994 27.8406 34.2149C26.0971 37.3829 24.8027 40.9734 23.9574 44.9862C23.1121 48.9991 22.6894 53.1703 22.6894 57.5C22.6894 63.2025 23.4555 68.641 24.9876 73.8154C26.5198 78.9371 28.8708 83.1348 32.0407 86.4084C35.2106 89.6292 39.2259 91.2397 44.0864 91.2397Z" fill="#323231"/>
<path d="M113.726 112.941V25.8196H98.6685L105.008 2.05923H137.5V112.941H113.726Z" fill="#323231"/>
</svg>
