<svg width="176" height="115" viewBox="0 0 176 115" fill="none" xmlns="http://www.w3.org/2000/svg">
<path d="M44.0606 115C37.7245 115 31.89 113.522 26.5572 110.565C21.2771 107.555 16.6834 103.41 12.7762 98.1302C8.86892 92.8501 5.83287 86.7516 3.66804 79.8347C1.55601 72.865 0.5 65.4201 0.5 57.5C0.5 49.5799 1.55601 42.1614 3.66804 35.2445C5.83287 28.2748 8.86892 22.1499 12.7762 16.8698C16.6834 11.5898 21.2771 7.47131 26.5572 4.51447C31.89 1.50482 37.7245 0 44.0606 0C50.3967 0 56.2048 1.50482 61.4848 4.51447C66.8177 7.47131 71.4114 11.5898 75.2658 16.8698C79.1203 22.1499 82.1035 28.2748 84.2156 35.2445C86.3804 42.1614 87.4628 49.5799 87.4628 57.5C87.4628 65.4201 86.3804 72.865 84.2156 79.8347C82.1035 86.7516 79.1203 92.8501 75.2658 98.1302C71.4114 103.41 66.8177 107.555 61.4848 110.565C56.2048 113.522 50.3967 115 44.0606 115ZM44.0606 91.2397C48.9711 91.2397 52.9839 89.6292 56.0992 86.4084C59.2672 83.1876 61.5904 79.0163 63.0689 73.8946C64.5473 68.7202 65.2865 63.2553 65.2865 57.5C65.2865 51.4279 64.4945 45.831 62.9105 40.7094C61.3264 35.5877 58.9504 31.4956 55.7824 28.4332C52.6671 25.318 48.7599 23.7603 44.0606 23.7603C40.3646 23.7603 37.1701 24.7107 34.4773 26.6116C31.7844 28.4596 29.5668 30.994 27.8244 34.2149C26.082 37.3829 24.7883 40.9734 23.9435 44.9862C23.0987 48.9991 22.6763 53.1703 22.6763 57.5C22.6763 63.2025 23.4419 68.641 24.9731 73.8154C26.5044 78.9371 28.854 83.1348 32.022 86.4084C35.1901 89.6292 39.2029 91.2397 44.0606 91.2397Z" fill="#323231"/>
<path d="M98.6104 112.941V91.7149C101.567 89.8669 105.263 87.306 109.699 84.0324C114.134 80.7059 118.78 76.9835 123.638 72.865C128.548 68.7466 133.116 64.5753 137.34 60.3512C141.617 56.0744 145.101 52.0351 147.794 48.2335C150.487 44.379 151.833 41.1318 151.833 38.4917C151.833 35.7989 151.173 33.3437 149.853 31.126C148.533 28.8556 146.765 27.0604 144.547 25.7404C142.382 24.4203 139.953 23.7603 137.26 23.7603C134.568 23.7603 132.112 24.4203 129.895 25.7404C127.677 27.0604 125.882 28.8556 124.509 31.126C123.189 33.3437 122.529 35.7989 122.529 38.4917H98.7688C98.7688 31.2052 100.538 24.6579 104.075 18.8499C107.613 13.0418 112.286 8.44812 118.094 5.06887C123.955 1.68962 130.344 0 137.26 0C144.283 0 150.698 1.71603 156.506 5.14808C162.314 8.58013 166.935 13.2266 170.367 19.0875C173.851 24.8955 175.594 31.3636 175.594 38.4917C175.594 42.0294 175.119 45.4086 174.168 48.6295C173.218 51.7975 171.819 54.9392 169.971 58.0544C168.175 61.1169 165.931 64.2585 163.238 67.4793C160.546 70.7002 157.43 74.1058 153.893 77.6963C150.408 81.2339 146.553 85.062 142.329 89.1805H175.594V112.941H98.6104Z" fill="#323231"/>
</svg>
